<svg width="35" height="35" viewBox="0 0 35 35" fill="none" xmlns="http://www.w3.org/2000/svg">
<path fill-rule="evenodd" clip-rule="evenodd" d="M17.5 35C27.165 35 35 27.165 35 17.5C35 7.83502 27.165 0 17.5 0C7.83502 0 0 7.83502 0 17.5C0 27.165 7.83502 35 17.5 35ZM22.8518 11.7272H13.8518C13.2995 11.7272 12.8518 12.1749 12.8518 12.7272C12.8518 13.2795 13.2995 13.7272 13.8518 13.7272H20.4375L12.0202 22.1446C11.6296 22.5351 11.6296 23.1683 12.0202 23.5588C12.4107 23.9493 13.0439 23.9493 13.4344 23.5588L21.8518 15.1414V21.7272C21.8518 22.2795 22.2995 22.7272 22.8518 22.7272C23.404 22.7272 23.8518 22.2795 23.8518 21.7272V12.7272C23.8518 12.1749 23.404 11.7272 22.8518 11.7272Z" fill="#070707"/>
</svg>
